# xmcd
#
# Track frame offsets: 
#        150
#        20011
#        35726
#        54380
#        71004
#        91159
#        105636
#        126104
#        140763
#        165535
#        180645
#        201689
#        215504
#
# Disc length: 3083 seconds
#
# Revision: 0
# Processed by: cddbd v1.5.2PL0 Copyright (c) Steve Scherf et al.
# Submitted via: ExactAudioCopy v1.3
#
DISCID=c40c090d
DTITLE=Sven Zetterberg - Something For Everybody
DYEAR=2016
DGENRE=Soul, Rhythm and Blues, Blues
TTITLE0=Cry To Me
TTITLE1=Writer's Block
TTITLE2=Don't Ever Leave Me
TTITLE3=The Small Talk Days Are Over
TTITLE4=Pick Up The Pieces
TTITLE5=Besides That
TTITLE6=Once In A While (Is Better Than Never At All)
TTITLE7=These Kind Of Blues
TTITLE8=Walk Out Like A Lady
TTITLE9=My Blues Got Me Walkin'
TTITLE10=Do We Get The Chance To Plat At Fasching Now
TTITLE11=Mathilda
TTITLE12=Treat Her Right
EXTD=
EXTT0=
EXTT1=
EXTT2=
EXTT3=
EXTT4=
EXTT5=
EXTT6=
EXTT7=
EXTT8=
EXTT9=
EXTT10=
EXTT11=
EXTT12=
PLAYORDER=
